<svg width="758" height="318" xmlns="http://www.w3.org/2000/svg" xmlns:xlink="http://www.w3.org/1999/xlink" overflow="hidden"><defs><clipPath id="clip0"><rect x="105" y="327" width="758" height="318"/></clipPath></defs><g clip-path="url(#clip0)" transform="translate(-105 -327)"><path d="M185.607 387 242.427 387C258.004 387 273.139 392.649 287.831 403.948L293 409 162 409 162.075 404.975C162.142 403.452 162.241 402.183 162.374 401.168 162.639 399.137 163.48 396.798 164.896 394.15 167.374 389.383 174.278 387 185.607 387Z" fill="#AFABAB" fill-rule="evenodd"/><path d="M379.634 377C390.914 377 397.718 379.366 400.046 384.097 401.478 386.726 402.329 389.048 402.597 391.063 402.866 393.078 403 396.101 403 400.131 403 404.162 402.866 407.185 402.597 409.2 402.329 411.215 401.523 413.493 400.18 416.034 398.837 418.575 396.465 420.371 393.063 421.423 389.661 422.474 385.14 423 379.5 423 373.86 423 369.339 422.474 365.937 421.423 362.535 420.371 360.163 418.531 358.82 415.903 357.477 413.274 356.672 410.952 356.403 408.937 356.134 406.922 356 403.899 356 399.869 356 395.838 356.134 392.815 356.403 390.8 356.672 388.785 357.432 386.55 358.686 384.097 361.192 379.366 368.175 377 379.634 377Z" fill="#26E6A7" fill-rule="evenodd"/><path d="M379.877 441.786C388.382 441.786 394.407 443.286 397.95 446.285 400.962 448.755 402.557 452.549 402.734 457.666 402.911 459.43 403 461.989 403 465.341L403 557.974C403 562.032 402.867 565.076 402.601 567.105 402.336 569.134 401.494 571.472 400.076 574.119 397.773 578.706 390.951 581 379.612 581 368.449 581 361.628 578.618 359.147 573.854 357.907 571.207 357.154 568.914 356.888 566.973 356.622 565.032 356.489 561.944 356.489 557.709L356.489 464.812C356.489 460.753 356.622 457.71 356.888 455.681 357.154 453.652 357.907 451.314 359.147 448.667 361.628 444.08 368.538 441.786 379.877 441.786ZM236.042 433.846 236.042 480.692 269.53 480.692C274.846 480.692 280.073 478.751 285.211 474.869 290.349 470.987 292.919 465.165 292.919 457.401 292.919 449.638 290.349 443.771 285.211 439.801 280.073 435.831 274.757 433.846 269.264 433.846ZM212.654 387 269.53 387C285.122 387 300.272 392.646 314.978 403.939 322.242 409.408 328.178 416.819 332.785 426.171 337.392 435.522 339.695 445.932 339.695 457.401 339.695 468.87 337.392 479.236 332.785 488.499 328.178 497.763 322.242 505.129 314.978 510.599 300.272 521.891 285.034 527.538 269.264 527.538L236.042 527.538 236.042 557.445C236.042 561.503 235.909 564.547 235.644 566.576 235.378 568.605 234.536 570.943 233.119 573.589 230.638 578.353 223.728 580.735 212.388 580.735 199.985 580.735 192.721 577.471 190.595 570.943 189.532 567.943 189 563.356 189 557.18L189 410.291C189 406.232 189.133 403.189 189.399 401.16 189.665 399.131 190.506 396.793 191.924 394.146 194.404 389.382 201.314 387 212.654 387Z" fill="#AFABAB" fill-rule="evenodd"/><path d="M189 372 189 457 106 372Z" fill="#F19600" fill-rule="evenodd"/><path d="M154 328 172 344.769 171.835 344.787 171.835 344.787 154 363 154 328Z" fill="#FA9300" fill-rule="evenodd"/><path d="M188.909 455 139 404.59 139 377.595 180.182 336 205 361.067 188.909 377.32 188.909 455Z" fill="#135881" fill-rule="evenodd"/><path d="M175 349C175 339.059 182.835 331 192.5 331 202.165 331 210 339.059 210 349 210 358.941 202.165 367 192.5 367 182.835 367 175 358.941 175 349Z" fill="#135881" fill-rule="evenodd"/><path d="M139 378 189 378 189 457 139 405.12Z" fill="#135881" fill-rule="evenodd"/><rect x="162" y="364" width="27" height="29" fill="#135881"/><path d="M585.402 439.62C589.736 439.62 595.086 442.801 601.454 449.163L630.903 478.853 660.088 449.163C666.455 442.801 671.85 439.62 676.272 439.62 680.694 439.62 686.088 442.801 692.456 449.163 698.823 455.525 702.007 460.959 702.007 465.466 702.007 469.972 698.823 475.406 692.456 481.769L663.006 511.458 692.456 541.147C698.823 547.509 702.007 552.944 702.007 557.45 702.007 561.956 698.823 567.346 692.456 573.62 686.088 579.894 680.694 583.031 676.272 583.031 671.85 583.031 666.455 579.85 660.088 573.488L630.903 544.063 601.454 573.488C595.086 579.85 589.736 583.031 585.402 583.031 581.069 583.031 575.674 579.894 569.218 573.62 562.762 567.346 559.534 561.956 559.534 557.45 559.534 552.944 562.718 547.509 569.086 541.147L598.535 511.458 569.086 481.769C562.718 475.406 559.534 469.972 559.534 465.466 559.534 460.959 562.762 455.525 569.218 449.163 575.674 442.801 581.069 439.62 585.402 439.62ZM738.099 438.825C741.46 438.825 744.202 439.532 746.324 440.946 748.447 442.359 749.994 443.817 750.967 445.319 751.94 446.822 756.804 455.039 765.559 469.972 774.314 484.905 782.672 498.822 790.631 511.723 791.515 508.895 796.291 497.983 804.958 478.985 813.625 459.987 818.268 449.87 818.887 448.633 819.506 447.396 820.523 445.894 821.938 444.127 824.237 441.122 827.465 439.62 831.622 439.62 835.778 439.62 840.687 440.857 846.347 443.331 856.782 447.926 862 453.493 862 460.032 862 463.213 861.293 466.217 859.878 469.044 858.463 471.872 857.755 473.374 857.755 473.551L788.243 628.89C786.828 632.248 785.635 634.81 784.662 636.578 783.689 638.345 782.141 640.024 780.019 641.614 777.896 643.205 775.243 644 772.059 644 768.876 644 764.188 642.675 757.998 640.024 747.562 635.429 742.344 629.951 742.344 623.589 742.344 619.347 750.834 599.112 767.814 562.884L715.017 474.081C711.48 468.249 709.711 463.919 709.711 461.092 709.711 455.437 714.487 449.782 724.038 444.127 730.052 440.592 734.739 438.825 738.099 438.825ZM447.347 376C455.837 376 461.851 377.502 465.389 380.506 468.396 382.981 469.987 386.868 470.164 392.17 470.341 393.761 470.43 396.235 470.43 399.592L470.43 483.624C473.613 480.973 478.433 476.467 484.889 470.105 491.345 463.743 496.165 459.236 499.349 456.586L502.532 454.465C508.723 449.693 514.029 447.308 518.451 447.308 522.873 447.308 527.958 450.886 533.707 458.044 539.455 465.201 542.329 470.812 542.329 474.876 542.329 478.941 539.057 483.713 532.513 489.191L506.247 511.458 541.533 540.617C545.955 544.328 548.741 547.156 549.891 549.1 551.04 551.044 551.615 552.899 551.615 554.667 551.615 558.908 548.874 564.651 543.39 571.897 537.377 579.319 532.07 583.031 527.472 583.031 523.581 583.031 518.186 580.468 511.288 575.343L508.635 573.488C504.566 570.13 498.287 564.254 489.797 555.859 481.307 547.465 474.852 541.501 470.43 537.966L470.43 558.378C470.43 562.443 470.297 565.491 470.032 567.523 469.766 569.556 468.926 571.897 467.511 574.548 465.212 579.143 458.402 581.44 447.082 581.44 435.939 581.44 429.129 579.054 426.653 574.283 425.415 571.632 424.663 569.29 424.398 567.258 424.133 565.226 424 562.177 424 558.113L424 399.327C424 395.263 424.133 392.214 424.398 390.182 424.663 388.15 425.415 385.808 426.653 383.157 429.129 378.386 436.027 376 447.347 376Z" fill="#AFABAB" fill-rule="evenodd"/></g></svg>